<?xml version="1.0" encoding="UTF-8"?>
<svg id="Layer_1" data-name="Layer 1" xmlns="http://www.w3.org/2000/svg" viewBox="0 0 479.16 138.37">
  <path d="M5.25,60.24c7.56-8.11,19.83-13.15,31.77-13.15,7.56,0,16.1,1.86,21.14,4.49v27.61c-2.52-4.82-7.12-7.45-13.15-7.45-9.64,0-14.9,7.23-14.9,20.81,0,11.39,3.73,17.31,12.49,19.17l1.64-14.46-10.08,1.97v-16.43l23.99,2.19v38.67c-5.37,2.85-13.04,4.49-20.81,4.49-12.71,0-24.21-4.71-32.1-13.15v-54.78Z" style="fill: #211623;"/>
  <path d="M77.88,49.28h34.51l12.05,76.69h-26.29l-4.38-20.16h-10.41l-.88,20.16h-21.91l17.31-76.69ZM90.92,92.45l-5.81-26.62-1.21,26.62h7.01Z" style="fill: #211623;"/>
  <path d="M121.15,49.28h57.85v30.13l-16.76-11.5,3.94,58.06h-32.21l3.94-58.06-16.76,11.5v-30.13Z" style="fill: #211623;"/>
  <path d="M183.25,112.91V47.6c8.75-9.27,24.69-15.67,39.32-15.67s30.57,6.4,39.32,15.67v65.31c-8.75,9.27-24.69,15.67-39.32,15.67s-30.57-6.4-39.32-15.67ZM229.49,100.11l-2.22-40.75c-.52-10.84-2.35-15.15-6.53-15.15s-5.75,4.7-5.09,16.2l2.22,40.75c.52,10.84,2.35,15.15,6.53,15.15s5.75-4.7,5.09-16.2Z" style="fill: #211623;"/>
  <path d="M306.43,35.78c12.89,0,27.21,5.46,35.46,13.4v62.14c-8.25,7.94-22.56,13.4-35.46,13.4s-27.21-5.46-35.46-13.4v-62.14c8.25-7.94,22.56-13.4,35.46-13.4M308.26,120.16c2.31,0,4.33-.84,5.83-2.43,2.77-2.93,3.67-8.1,3.12-17.84l-2.22-40.73c-.32-6.58-.91-18.83-10.38-18.83-2.31,0-4.33.84-5.83,2.43-2.77,2.93-3.67,8.1-3.12,17.84l2.22,40.73c.32,6.58.91,18.82,10.39,18.82M306.43,31.92c-14.63,0-30.57,6.4-39.32,15.67v65.31c8.75,9.27,24.69,15.67,39.32,15.67s30.57-6.4,39.32-15.67V47.6c-8.75-9.27-24.69-15.67-39.32-15.67h0ZM308.26,116.3c-4.18,0-6.01-4.31-6.53-15.15l-2.22-40.75c-.65-11.49.78-16.2,5.09-16.2s6.01,4.31,6.53,15.15l2.22,40.75c.65,11.49-.78,16.2-5.09,16.2h0Z" style="fill: #211623;"/>
  <path d="M350.55,123.67v-32.54c11.83-.99,19.72,3.83,19.72,11.94,0,6.57-5.15,10.41-14.68,10.74,2.52,1.21,5.81,1.86,8.87,1.86,6.68,0,10.41-4.27,10.41-12.05,0-10.96-9.31-18.73-24.32-20.38v-23.01c8.44-8.55,19.61-13.15,31.88-13.15,7.34,0,15.12,1.64,21.14,4.49v27.83c-5.48-5.59-13.15-8.54-21.91-8.54h-1.86c.55,9.75,9.86,17.2,23.77,18.95v25.2c-6.35,8.11-18.73,13.15-32.54,13.15-7.56,0-14.57-1.53-20.49-4.49Z" style="fill: #211623;"/>
  <path d="M193.51,9.78v3.86c6.07,0,13.27,5.43,18.42,10.37-13.41,1.53-24.14,8.69-29.63,13.12-1.72-4.78-2.89-13.01,4.8-20.7,1.88-1.88,3.97-2.79,6.41-2.79v-3.86M193.51,9.78c-3.21,0-6.34,1.12-9.14,3.92-14.01,14.01-3.3,29.66-3.3,29.66,0,0,15.45-15.79,35.96-15.79,1.18,0,2.38.05,3.59.16,0,0-14.24-17.96-27.11-17.96h0Z" style="fill: #211623;"/>
  <path d="M308.84,27.74s22.25-28.05,36.26-14.04c14.01,14.01,3.3,29.66,3.3,29.66,0,0-17.27-17.66-39.55-15.63Z" style="fill: #211623;"/>
  <path d="M407.95,115.02v-54.78c7.34-7.78,20.71-13.15,32.98-13.15s25.64,5.37,32.98,13.15v54.78c-7.34,7.78-20.7,13.15-32.98,13.15s-25.64-5.37-32.98-13.15ZM446.74,104.28l-1.86-34.18c-.44-9.09-1.97-12.71-5.48-12.71s-4.82,3.94-4.27,13.58l1.86,34.18c.44,9.09,1.97,12.71,5.48,12.71s4.82-3.94,4.27-13.59Z" style="fill: #211623;"/>
</svg>